#!OML:ASF G:\JayActor3\Patient Classification 1\Patient 1\Session 5\male.ASF
:FULLY-SPECIFIED
:DEGREES
530
root -15.3333 14.4803 -5.53538 -183.13 86.0013 -195.739
lowerback 34.7499 -2.67265 2.07351
upperback 8.12816 -1.68013 -0.304789
thorax -8.6683 -0.397931 -0.852299
lowerneck -5.55156 -0.797313 1.14664
upperneck -12.3723 -0.612512 1.58395
head -2.99634 -0.240628 0.312237
rclavicle -1.94809e-014 -3.74709e-014
rhumerus -21.3072 3.20207 -85.4169
rradius 41.6038
rwrist -4.74153
rhand -20.7753 -9.63472
rfingers 7.12502
rthumb 5.59132 -39.5409
lclavicle -1.94809e-014 -3.74709e-014
lhumerus -24.3008 -7.21924 82.92
lradius 41.9317
lwrist 23.3978
lhand -17.741 12.1601
lfingers 7.12502
lthumb 8.52025 41.9682
rfemur -71.6692 -1.65017 20.4998
rtibia 63.4279
rfoot -16.3891 -15.4695
rtoes -4.98092
lfemur -38.8881 7.9931 -20.5221
ltibia 86.2139
lfoot -18.2013 2.65399
ltoes -32.4902
531
root -15.1846 14.484 -5.49634 -182.214 85.839 -194.955
lowerback 34.7024 -2.73395 2.14276
upperback 8.08691 -1.73626 -0.282902
thorax -8.69868 -0.427302 -0.844922
lowerneck -5.62025 -0.788024 1.13412
upperneck -12.2734 -0.603294 1.59801
head -2.95006 -0.235741 0.318123
rclavicle -1.52567e-014 -3.67255e-014
rhumerus -21.4073 3.24978 -85.4468
rradius 41.6884
rwrist -4.83773
rhand -20.7044 -9.61492
rfingers 7.12502
rthumb 5.65976 -39.5193
lclavicle -1.52567e-014 -3.67255e-014
lhumerus -24.3869 -7.29949 82.9671
lradius 42.0598
lwrist 23.3967
lhand -17.5341 12.1623
lfingers 7.12502
lthumb 8.71991 41.9621
rfemur -71.6481 -1.84246 20.7913
rtibia 64.1413
rfoot -16.7049 -15.0595
rtoes -5.0532
lfemur -39.484 8.23568 -20.0401
ltibia 87.1927
lfoot -15.6676 1.75728
ltoes -32.7497
532
root -15.0371 14.4872 -5.45769 -181.626 85.6714 -194.463
lowerback 34.6957 -2.79618 2.20103
upperback 8.04923 -1.79525 -0.26993
thorax -8.7403 -0.456978 -0.839515
lowerneck -5.68715 -0.778771 1.12699
upperneck -12.1797 -0.594149 1.60988
head -2.90599 -0.231007 0.322416
rclavicle 1.16041e-014 2.16675e-014
rhumerus -21.5171 3.31243 -85.4787
rradius 41.8033
rwrist -4.94237
rhand -20.6075 -9.59184
rfingers 7.12502
rthumb 5.75332 -39.4937
lclavicle 1.16041e-014 2.16675e-014
lhumerus -24.4688 -7.39682 83.0057
lradius 42.2199
lwrist 23.3808
lhand -17.2858 12.1493
lfingers 7.12502
lthumb 8.95954 41.9391
rfemur -71.5897 -2.0314 21.0558
rtibia 64.8517
rfoot -17.0287 -14.6649
rtoes -5.06606
lfemur -40.1506 8.44186 -19.5678
ltibia 88.2645
lfoot -12.9335 0.84608
ltoes -32.169
533
root -14.8908 14.4904 -5.41946 -181.253 85.5084 -194.151
lowerback 34.7259 -2.8552 2.25016
upperback 8.01814 -1.85105 -0.26465
thorax -8.78828 -0.4841 -0.838061
lowerneck -5.73978 -0.770561 1.1236
upperneck -12.1043 -0.585304 1.62433
head -2.8708 -0.226648 0.327035
rclavicle -6.88292e-015 4.05024e-015
rhumerus -21.635 3.38832 -85.5125
rradius 41.9506
rwrist -5.05778
rhand -20.5059 -9.57506
rfingers 7.12502
rthumb 5.85136 -39.4743
lclavicle -6.88292e-015 4.05024e-015
lhumerus -24.5436 -7.50748 83.0364
lradius 42.4135
lwrist 23.3498
lhand -17.0262 12.1435
lfingers 7.12502
lthumb 9.21005 41.9223
rfemur -71.4855 -2.20021 21.297
rtibia 65.554
rfoot -17.3675 -14.3365
rtoes -5.02072
lfemur -40.8765 8.62253 -19.1034
ltibia 89.414
lfoot -10.0656 -0.0461161
ltoes -31.1095
534
root -14.7459 14.4934 -5.38157 -180.803 85.3579 -193.726
lowerback 34.7901 -2.91113 2.30883
upperback 7.99569 -1.89691 -0.263031
thorax -8.83937 -0.50573 -0.848767
lowerneck -5.78187 -0.766211 1.12093
upperneck -12.0472 -0.579962 1.64693
head -2.84382 -0.224227 0.334289
rclavicle 4.07509e-015 3.38431e-014
rhumerus -21.7544 3.47057 -85.5483
rradius 42.1202
rwrist -5.18562
rhand -20.4112 -9.55081
rfingers 7.12502
rthumb 5.94283 -39.4475
lclavicle 4.07509e-015 3.38431e-014
lhumerus -24.6085 -7.6246 83.0575
lradius 42.6382
lwrist 23.3104
lhand -16.7686 12.1296
lfingers 7.12502
lthumb 9.45863 41.8973
rfemur -71.3319 -2.33527 21.5397
rtibia 66.2435
rfoot -17.7335 -14.0927
rtoes -4.90887
lfemur -41.6577 8.7894 -18.6252
ltibia 90.629
lfoot -7.12477 -0.911082
ltoes -29.177
